<svg width="14" height="10" viewBox="0 0 14 10" fill="none" xmlns="http://www.w3.org/2000/svg">
<path d="M8.33337 5C8.33337 5.73333 7.73337 6.33333 7.00004 6.33333C6.26671 6.33333 5.66671 5.73333 5.66671 5C5.66671 4.26667 6.26671 3.66667 7.00004 3.66667C7.73337 3.66667 8.33337 4.26667 8.33337 5ZM4.65337 2.63333L4.18004 2.16667C3.45337 2.88667 3.00004 3.89333 3.00004 5C3.00004 6.10667 3.45337 7.11333 4.18004 7.83333L4.65337 7.36C4.04671 6.76 3.66671 5.92666 3.66671 5C3.66671 4.07333 4.04671 3.24 4.65337 2.63333ZM9.82004 2.16667L9.34671 2.64C9.95337 3.24 10.3334 4.07333 10.3334 5C10.3334 5.92666 9.95337 6.76 9.34671 7.36666L9.82004 7.84C10.5467 7.11333 11 6.10667 11 5C11 3.89333 10.5467 2.88667 9.82004 2.16667ZM2.76671 0.753332L2.30004 0.279999C1.08671 1.48667 0.333374 3.16 0.333374 5C0.333374 6.84 1.08671 8.51333 2.30004 9.72L2.77337 9.24667C1.68004 8.16 1.00004 6.66 1.00004 5C1.00004 3.34 1.68004 1.84 2.76671 0.753332ZM11.7 0.279999L11.2267 0.753332C12.32 1.84 13 3.34 13 5C13 6.66 12.32 8.16 11.2334 9.24667L11.7067 9.72C12.9134 8.51333 13.6667 6.84 13.6667 5C13.6667 3.16 12.9134 1.48667 11.7 0.279999Z" fill="#FF0000"/>
</svg>
